<?xml version="1.0" encoding="UTF-8" standalone="no"?>
<!-- Created with Inkscape (http://www.inkscape.org/) -->

<svg
   xmlns:dc="http://purl.org/dc/elements/1.1/"
   xmlns:cc="http://creativecommons.org/ns#"
   xmlns:rdf="http://www.w3.org/1999/02/22-rdf-syntax-ns#"
   xmlns:svg="http://www.w3.org/2000/svg"
   xmlns="http://www.w3.org/2000/svg"
   xmlns:sodipodi="http://sodipodi.sourceforge.net/DTD/sodipodi-0.dtd"
   xmlns:inkscape="http://www.inkscape.org/namespaces/inkscape"
   version="1.1"
   id="svg2"
   xml:space="preserve"
   width="165.72218"
   height="157.23727"
   viewBox="0 0 165.72218 157.23726"
   sodipodi:docname="1b2.svg"
   inkscape:version="0.92.3 (2405546, 2018-03-11)"><metadata
     id="metadata8"><rdf:RDF><cc:Work
         rdf:about=""><dc:format>image/svg+xml</dc:format><dc:type
           rdf:resource="http://purl.org/dc/dcmitype/StillImage" /><dc:title></dc:title></cc:Work></rdf:RDF></metadata><defs
     id="defs6" /><sodipodi:namedview
     pagecolor="#ffffff"
     bordercolor="#666666"
     borderopacity="1"
     objecttolerance="10"
     gridtolerance="10"
     guidetolerance="10"
     inkscape:pageopacity="0"
     inkscape:pageshadow="2"
     inkscape:window-width="1920"
     inkscape:window-height="1017"
     id="namedview4"
     showgrid="false"
     inkscape:zoom="0.82749023"
     inkscape:cx="13.755179"
     inkscape:cy="123.56856"
     inkscape:window-x="0"
     inkscape:window-y="29"
     inkscape:window-maximized="1"
     inkscape:current-layer="g10"
     fit-margin-top="0"
     fit-margin-left="0"
     fit-margin-right="0"
     fit-margin-bottom="0" /><g
     id="g10"
     inkscape:groupmode="layer"
     inkscape:label="ink_ext_XXXXXX"
     transform="matrix(1.3333333,0,0,-1.3333333,-377.01728,333.76826)"><path
       inkscape:connector-curvature="0"
       id="path23498"
       style="fill:#000000;fill-opacity:1;fill-rule:nonzero;stroke:none;stroke-width:0.09999999"
       d="m 335.3142,246.7755 c 0,0 13.12003,-1.45528 24.58348,-12.09536 0,0 -6.9658,10.18549 -16.43665,12.96622 0,0 17.70991,-1.4883 32.39537,-23.2661 0,0 -2.55844,8.51642 -19.83589,20.87229 0,0 39.73856,-5.86273 41.50406,-30.11977 1.7665,-24.2568 7.01033,-22.92628 9.53004,-20.29535 0,0 -5.03003,-8.44827 -16.57753,-0.61802 -11.54847,7.83001 -6.13418,13.18793 -6.13418,13.18793 0,0 0.92387,4.2174 -4.13335,3.73371 -5.0577,-0.48588 -6.72966,-4.89397 1.8248,-13.4841 8.5542,-8.58915 23.57606,-19.12451 11.17975,-37.80903 -12.39826,-18.68091 -1.40718,-27.44968 -1.40718,-27.44968 0,0 -27.47807,9.36836 -23.24495,31.9585 4.23189,22.59086 2.69805,61.64874 -33.24777,82.41876" /><path
       inkscape:connector-curvature="0"
       id="path23500"
       style="fill:#000000;fill-opacity:1;fill-rule:nonzero;stroke:none;stroke-width:0.09999999"
       d="m 297.27111,189.32619 c 11.73846,3.53009 19.52201,-2.69082 18.85561,-3.59843 -0.46216,-1.85549 -8.80587,0.90257 -16.85578,-1.83988 -0.95251,-0.26729 -4.92284,-1.58338 -8.20253,-7.17385 -3.38596,-5.35433 -4.63509,-15.26322 -0.25366,-24.96807 4.17103,-9.81495 17.03761,-15.94282 30.32427,-14.7066 13.29641,0.86421 27.11164,8.43046 34.45825,20.64042 7.70429,12.23152 7.23071,27.60048 4.70946,40.69031 -2.49712,13.27132 -8.48594,24.75882 -15.66306,32.77482 -14.03782,15.47985 -28.72825,18.82412 -29.70807,19.18129 0.97928,-0.33874 15.74661,-3.25396 30.37836,-18.57391 7.48052,-7.93908 13.89841,-19.50764 16.78606,-33.00905 2.87568,-13.18978 3.90059,-29.15865 -4.01087,-42.5383 -7.56448,-13.28341 -22.16163,-21.80617 -36.6028,-23.11123 -14.29506,-1.77146 -29.59631,4.6738 -35.0382,16.45369 -5.4874,11.16586 -4.23654,22.88675 -0.22753,29.85675 3.93937,7.2732 9.7971,9.61253 11.05049,9.92204" /><path
       inkscape:connector-curvature="0"
       id="path23554"
       style="fill:#000000;fill-opacity:1;fill-rule:nonzero;stroke:none;stroke-width:0.09999999"
       d="m 308.24083,246.68626 c 21.32751,-4.75439 23.0574,-32.00811 23.0574,-32.00811 1.90195,20.00495 -14.0575,30.30363 -14.0575,30.30363 9.71065,-4.51189 28.81845,-17.79642 20.44304,-35.05918 -8.37296,-17.26419 -20.14487,-12.47948 -20.14487,-12.47948 2.80454,1.50747 4.05729,5.21299 -2.23507,10.39037 -6.29577,5.17858 -5.78168,6.30443 0.40312,19.62597 6.18456,13.32249 -7.46612,19.2268 -7.46612,19.2268" /><path
       inkscape:connector-curvature="0"
       id="path23558"
       style="fill:#000000;fill-opacity:1;fill-rule:nonzero;stroke:none;stroke-width:0.09999999"
       d="m 334.57991,150.26106 c -18.11947,-1.6042 -19.92247,12.18458 -19.92247,12.18458 6.72384,-7.6605 19.25013,0.29802 16.92453,9.47079 -2.32562,9.17279 -2.38025,11.74835 8.96072,23.58862 11.34316,11.83978 2.57854,27.5496 2.57854,27.5496 11.01271,-15.93421 6.02032,-35.92833 6.02032,-35.92833 4.94362,13.50513 1.88246,25.57912 1.88246,25.57912 9.15246,-26.66757 -2.0253,-46.23574 -2.0253,-46.23574 13.8274,19.51778 6.12447,40.45174 4.87149,43.5261 11.66,-26.5724 1.47081,-57.89304 -19.29029,-59.73474" /></g></svg>