<?xml version="1.0" encoding="UTF-8" standalone="no"?>
<!-- Created with Inkscape (http://www.inkscape.org/) -->

<svg
   xmlns:dc="http://purl.org/dc/elements/1.1/"
   xmlns:cc="http://creativecommons.org/ns#"
   xmlns:rdf="http://www.w3.org/1999/02/22-rdf-syntax-ns#"
   xmlns:svg="http://www.w3.org/2000/svg"
   xmlns="http://www.w3.org/2000/svg"
   xmlns:sodipodi="http://sodipodi.sourceforge.net/DTD/sodipodi-0.dtd"
   xmlns:inkscape="http://www.inkscape.org/namespaces/inkscape"
   version="1.1"
   id="svg2"
   xml:space="preserve"
   width="188.45346"
   height="127.01875"
   viewBox="0 0 188.45346 127.01875"
   sodipodi:docname="1t1.svg"
   inkscape:version="0.92.3 (2405546, 2018-03-11)"><metadata
     id="metadata8"><rdf:RDF><cc:Work
         rdf:about=""><dc:format>image/svg+xml</dc:format><dc:type
           rdf:resource="http://purl.org/dc/dcmitype/StillImage" /><dc:title></dc:title></cc:Work></rdf:RDF></metadata><defs
     id="defs6" /><sodipodi:namedview
     pagecolor="#ffffff"
     bordercolor="#666666"
     borderopacity="1"
     objecttolerance="10"
     gridtolerance="10"
     guidetolerance="10"
     inkscape:pageopacity="0"
     inkscape:pageshadow="2"
     inkscape:window-width="1920"
     inkscape:window-height="1017"
     id="namedview4"
     showgrid="false"
     inkscape:zoom="0.82749023"
     inkscape:cx="108.08208"
     inkscape:cy="-12.705555"
     inkscape:window-x="0"
     inkscape:window-y="29"
     inkscape:window-maximized="1"
     inkscape:current-layer="g10"
     fit-margin-top="0"
     fit-margin-left="0"
     fit-margin-right="0"
     fit-margin-bottom="0" /><g
     id="g10"
     inkscape:groupmode="layer"
     inkscape:label="ink_ext_XXXXXX"
     transform="matrix(1.3333333,0,0,-1.3333333,-282.69038,439.82385)"><path
       inkscape:connector-curvature="0"
       id="path2302"
       style="fill:#e2e0b7;fill-opacity:1;fill-rule:nonzero;stroke:none;stroke-width:0.1"
       d="m 277.26159,255.47373 c 2.01704,-4.78698 3.64528,-9.85961 7.50114,-13.43912 1.0505,-0.97474 2.24505,-1.74386 3.61158,-2.16238 1.21639,-0.371 2.51404,-0.37366 3.772,-0.19271 2.45854,0.34791 4.78059,1.40867 7.17515,2.05163 0.38516,0.10497 0.77682,0.19185 1.16733,0.27301 0.16484,0.0324 0.0965,-0.18806 -0.0319,-0.21314 -2.40751,-0.4864 -4.68062,-1.5187 -7.0728,-2.07589 -2.37455,-0.55566 -4.72703,-0.50506 -6.87037,0.69564 -2.23853,1.25361 -3.9799,3.46118 -5.31075,5.65458 -1.31876,2.17697 -2.26946,4.56784 -3.21292,6.93993 -0.31024,0.78052 -0.62472,1.56083 -0.94808,2.33437 -0.0523,0.12073 0.17175,0.24937 0.21958,0.13408 v 0" /><path
       inkscape:connector-curvature="0"
       id="path23504"
       style="fill:#000000;fill-opacity:1;fill-rule:nonzero;stroke:none;stroke-width:0.1"
       d="m 295.42925,255.68352 c -16.50982,-16.34719 -40.18512,-23.15558 -56.96396,-20.53302 -16.38346,1.95928 -25.91471,8.31803 -26.4475,8.58702 0.53535,-0.26321 10.18719,-6.45992 26.49448,-8.13604 16.72254,-2.32505 39.91998,4.78887 55.91903,21.1293 16.61586,15.22377 24.81123,39.97045 17.83324,56.30148 -6.93931,17.17378 -24.47677,14.41736 -23.76307,12.78493 -7.10179,-3.46184 -4.36348,-10.62275 -5.18831,-10.68022 -0.26874,-0.12717 -1.50233,1.16185 -1.85373,4.04565 -0.55303,2.92682 1.77066,7.2559 5.62351,9.16083 0.75742,0.77636 5.3242,2.45966 10.95564,0.85414 5.89319,-1.11483 13.24493,-6.43879 16.49751,-15.26689 7.16451,-17.78483 -2.00255,-43.02335 -19.10684,-58.24718" /><path
       inkscape:connector-curvature="0"
       id="path23542"
       style="fill:#000000;fill-opacity:1;fill-rule:nonzero;stroke:none;stroke-width:0.1"
       d="m 267.25409,278.30161 c -1.90292,5.65164 -8.95491,7.37586 -10.50138,0.94657 -1.54648,-6.4293 -7.72344,-5.89467 -18.47146,0.37141 -10.74944,6.26601 -21.8075,-2.85941 -21.8075,-2.85941 14.65078,15.65057 33.09884,11.38266 33.09884,11.38266 -9.71786,6.1094 -24.7499,-1.35679 -24.7499,-1.35679 0,0 9.77082,15.54187 26.53347,11.48653 19.9091,-4.81583 15.89793,-19.97097 15.89793,-19.97097" /><path
       inkscape:connector-curvature="0"
       id="path23544"
       style="fill:#000000;fill-opacity:1;fill-rule:nonzero;stroke:none;stroke-width:0.1"
       d="m 279.0501,249.52725 c 0,0 -23.79214,-17.50975 -51.17681,-6.27498 0,0 29.55451,-4.98248 39.5186,18.85612 0,0 3.90661,8.58903 0.87118,12.13802 0,0 14.45497,-2.19759 9.06827,-9.82903 -5.38448,-7.63345 -4.70551,-9.03673 -3.0287,-9.7799 1.67252,-0.74194 14.32618,4.97211 9.72566,20.13669 -4.602,15.16592 -3.62182,20.5446 5.13467,26.28131 0,0 -1.09448,-2.9206 2.99238,-7.03797 4.08679,-4.11595 5.22959,-11.03392 0.91764,-15.33582 0,0 6.88136,1.96081 4.22192,10.65297 -2.66024,8.69426 -4.11551,13.54842 1.01235,17.88613 5.12989,4.33992 4.76327,7.80985 4.76327,7.80985 0,0 16.6588,-18.70531 -7.5377,-49.56307 0,0 8.90336,15.79247 8.03918,25.59381 0,0 -5.68339,-27.74026 -24.52191,-41.53413" /><path
       inkscape:connector-curvature="0"
       id="path23546"
       style="fill:#000000;fill-opacity:1;fill-rule:nonzero;stroke:none;stroke-width:0.1"
       d="m 333.50947,264.56753 c -4.56801,-7.59408 -13.90371,-27.30277 -52.285,-22.11486 0,0 25.88039,3.45722 36.12547,16.85294 0,0 -18.27149,-12.74393 -27.13631,-11.72055 0,0 12.20521,6.51362 18.40905,14.18517 6.20532,7.6702 22.24101,24.41016 38.00574,7.30412 0,0 -8.55093,3.08726 -13.11895,-4.50682" /><path
       inkscape:connector-curvature="0"
       id="path23548"
       style="fill:#000000;fill-opacity:1;fill-rule:nonzero;stroke:none;stroke-width:0.1"
       d="m 344.87819,289.08659 c -2.86928,-4.43939 -5.79129,-3.34498 -13.80013,-3.10152 -8.00737,0.24211 -14.84182,-11.55733 -14.84182,-11.55733 9.90775,25.06556 23.97852,26.74622 23.97852,26.74622 -13.77532,0.79505 -23.50165,-19.34237 -23.50165,-19.34237 6.18992,28.58424 18.97143,28.56482 18.97143,28.56482 23.15003,0.46056 16.90691,-24.02617 16.90691,-24.02617 0.41262,4.32517 -4.84398,7.15574 -7.71326,2.71635" /></g></svg>