<?xml version="1.0" encoding="UTF-8" standalone="no"?>
<!-- Created with Inkscape (http://www.inkscape.org/) -->

<svg
   xmlns:dc="http://purl.org/dc/elements/1.1/"
   xmlns:cc="http://creativecommons.org/ns#"
   xmlns:rdf="http://www.w3.org/1999/02/22-rdf-syntax-ns#"
   xmlns:svg="http://www.w3.org/2000/svg"
   xmlns="http://www.w3.org/2000/svg"
   xmlns:sodipodi="http://sodipodi.sourceforge.net/DTD/sodipodi-0.dtd"
   xmlns:inkscape="http://www.inkscape.org/namespaces/inkscape"
   version="1.1"
   id="svg2"
   xml:space="preserve"
   width="180.664"
   height="135.77167"
   viewBox="0 0 180.664 135.77166"
   sodipodi:docname="1t2.svg"
   inkscape:version="0.92.3 (2405546, 2018-03-11)"><metadata
     id="metadata8"><rdf:RDF><cc:Work
         rdf:about=""><dc:format>image/svg+xml</dc:format><dc:type
           rdf:resource="http://purl.org/dc/dcmitype/StillImage" /><dc:title></dc:title></cc:Work></rdf:RDF></metadata><defs
     id="defs6" /><sodipodi:namedview
     pagecolor="#ffffff"
     bordercolor="#666666"
     borderopacity="1"
     objecttolerance="10"
     gridtolerance="10"
     guidetolerance="10"
     inkscape:pageopacity="0"
     inkscape:pageshadow="2"
     inkscape:window-width="1920"
     inkscape:window-height="1017"
     id="namedview4"
     showgrid="false"
     inkscape:zoom="0.82749023"
     inkscape:cx="96.675362"
     inkscape:cy="-14.170819"
     inkscape:window-x="0"
     inkscape:window-y="29"
     inkscape:window-maximized="1"
     inkscape:current-layer="g10"
     fit-margin-top="0"
     fit-margin-left="0"
     fit-margin-right="0"
     fit-margin-bottom="0" /><g
     id="g10"
     inkscape:groupmode="layer"
     inkscape:label="ink_ext_XXXXXX"
     transform="matrix(1.3333333,0,0,-1.3333333,-294.0971,450.04203)"><path
       inkscape:connector-curvature="0"
       id="path23508"
       style="fill:#000000;fill-opacity:1;fill-rule:nonzero;stroke:none;stroke-width:0.09999999"
       d="m 252.52529,235.86962 c -20.63726,1.37087 -31.33139,9.97457 -31.95246,10.24496 0.63947,-0.24603 11.86489,-8.06376 31.9997,-8.54373 20.48065,-1.02337 49.24984,12.83947 65.85554,39.18358 7.4507,13.44749 8.57733,29.61066 3.43835,41.81462 -5.10747,12.12359 -18.0486,19.32293 -27.67839,16.42496 -9.98989,-3.18597 -10.70484,-15.35118 -6.05411,-18.78878 4.42693,-3.9707 7.61003,-0.35244 7.79536,-0.0849 -0.20883,-0.33463 -3.21816,-4.19455 -8.1534,-0.30781 -5.10156,3.36621 -5.30417,16.60871 5.87657,20.79682 10.71356,3.63107 24.89076,-3.76288 30.83378,-16.86551 5.87565,-13.1454 4.8474,-30.25425 -3.07714,-44.63282 -17.54312,-27.85768 -47.76597,-41.07012 -68.8838,-39.24139" /><path
       inkscape:connector-curvature="0"
       id="path23538"
       style="fill:#000000;fill-opacity:1;fill-rule:nonzero;stroke:none;stroke-width:0.09999999"
       d="m 289.93987,289.13614 c 1.10629,-15.81929 -8.45374,-18.39744 -5.29808,-21.90093 3.15773,-3.50269 12.27731,0.57222 12.33751,13.36967 0.0603,12.79844 -2.14853,17.08431 5.5699,18.67338 7.71846,1.58906 5.97863,10.77655 2.03971,15.22795 0,0 14.33225,-8.35609 7.1121,-32.10839 -7.21927,-23.75337 -27.29983,-32.89028 -27.29983,-32.89028 0,0 11.53302,5.54974 18.01573,21.35311 -3.07897,-6.67708 -13.28485,-21.77966 -44.22527,-28.42286 1.29396,0.30513 19.90541,5.14344 22.15553,31.61044 0,0 -6.58083,-38.36259 -42.62121,-28.80339 0,0 30.19387,-3.76299 34.18745,19.71738 0,0 1.70352,5.65646 -2.46795,10.71177 -4.17145,5.0553 -5.61185,11.30389 -0.29729,15.16124 5.31837,3.85497 3.91835,7.48079 0.0188,9.30953 0,0 19.6676,4.81059 20.77289,-11.00862" /><path
       inkscape:connector-curvature="0"
       id="path23540"
       style="fill:#000000;fill-opacity:1;fill-rule:nonzero;stroke:none;stroke-width:0.09999999"
       d="m 321.4221,247.13059 c 0,0 15.57381,4.61965 18.94564,24.66762 0,0 -7.02921,-27.84608 -39.77793,-26.45854 0,0 16.72672,4.51134 23.29749,18.43177 6.56885,13.92162 17.37043,29.47552 32.18354,23.11068 0,0 -9.10372,-0.87489 -7.7491,-7.98825 1.35863,-7.11374 4.31506,-24.85701 -26.89964,-31.76328" /></g></svg>