<?xml version="1.0" encoding="UTF-8" standalone="no"?>
<!-- Created with Inkscape (http://www.inkscape.org/) -->

<svg
   xmlns:dc="http://purl.org/dc/elements/1.1/"
   xmlns:cc="http://creativecommons.org/ns#"
   xmlns:rdf="http://www.w3.org/1999/02/22-rdf-syntax-ns#"
   xmlns:svg="http://www.w3.org/2000/svg"
   xmlns="http://www.w3.org/2000/svg"
   xmlns:sodipodi="http://sodipodi.sourceforge.net/DTD/sodipodi-0.dtd"
   xmlns:inkscape="http://www.inkscape.org/namespaces/inkscape"
   version="1.1"
   id="svg2"
   xml:space="preserve"
   width="399.34402"
   height="240.64011"
   viewBox="0 0 399.34402 240.64011"
   sodipodi:docname="2.svg"
   inkscape:version="0.92.3 (2405546, 2018-03-11)"><metadata
     id="metadata8"><rdf:RDF><cc:Work
         rdf:about=""><dc:format>image/svg+xml</dc:format><dc:type
           rdf:resource="http://purl.org/dc/dcmitype/StillImage" /><dc:title></dc:title></cc:Work></rdf:RDF></metadata><defs
     id="defs6" /><sodipodi:namedview
     pagecolor="#ffffff"
     bordercolor="#666666"
     borderopacity="1"
     objecttolerance="10"
     gridtolerance="10"
     guidetolerance="10"
     inkscape:pageopacity="0"
     inkscape:pageshadow="2"
     inkscape:window-width="1920"
     inkscape:window-height="1017"
     id="namedview4"
     showgrid="false"
     inkscape:zoom="1.6549805"
     inkscape:cx="200.2458"
     inkscape:cy="40.14503"
     inkscape:window-x="0"
     inkscape:window-y="29"
     inkscape:window-maximized="1"
     inkscape:current-layer="g10"
     fit-margin-top="0"
     fit-margin-left="0"
     fit-margin-right="0"
     fit-margin-bottom="0" /><g
     id="g10"
     inkscape:groupmode="layer"
     inkscape:label="ink_ext_XXXXXX"
     transform="matrix(1.3333333,0,0,-1.3333333,-163.12121,513.64517)"><path
       inkscape:connector-curvature="0"
       id="path23488"
       style="fill:#000000;fill-opacity:1;fill-rule:nonzero;stroke:none;stroke-width:0.1"
       d="m 370.94785,240.86989 c 3.546,1.864 7.444,0.957 10.082,-0.535 1.089,-0.495 2.05,-1.103 2.88,-1.785 2.927,-1.918 6.465,-5.689 4.755,-12.251 -2.751,-10.573 -15.206,-7.965 -14.194,-1.449 1.015,6.518 4.347,5.505 7.967,8.546 2.473,2.079 0.688,4.493 -0.692,5.816 -0.336,0.177 -0.686,0.344 -1.052,0.499 -5.314,3.711 -14.038,-0.408 -15.601,-8.987 -1.979,-7.825 2.098,-19.228 12.109,-22.464 9.898,-3.088 22.47,0.875 30.935,9.634 8.809,8.78 11.787,22.925 9.042,36.435 -2.685,13.59 -12.143,26.166 -25.445,33.322 -13.233,7.326 -29.544,9.702 -45.549,7.615 -16.341,-1.589 -30.508,-8.951 -45.281,-14.765 -14.738,-5.552 -29.451,-9.678 -43.778,-11.959 -28.543,-4.841 -55.917,-1.603 -75.389,8.928 -13.474,6.905 -22.755,16.15 -29.265,24.582 -20.954,23.577 -20.071,43.785 -20.071,43.785 -2.318,-30.126 24.717,-53.3 24.717,-53.3 -61.024002,36.306 -23.174,92.697 -23.174,92.697 0,0 -0.771,-10.816 10.817,-27.423 11.585,-16.608 2.511,-14.483 5.213,-37.658 1.575,-13.502 11.473,-25.226 19.463,-32.667 3.939,-2.893 8.355,-5.61 13.319,-7.987 19.223,-9.748 45.822,-12.327 73.73,-7.182 14.004,2.441 28.411,6.664 42.86,12.24 14.129,5.669 29.253,13.574 46.277,15.213 16.773,2.184 34.08,-0.35 48.229,-8.328 14.222,-7.77 24.417,-21.621 27.081,-36.355 2.78,-14.518 -0.773,-29.998 -10.58,-39.367 -9.44,-9.299 -22.923,-13.288 -33.89,-9.606 -11.328,4.133 -15.081,16.563 -12.762,24.959 1.184,4.299 3.785,7.977 7.247,9.797" /></g></svg>