<?xml version="1.0" encoding="UTF-8" standalone="no"?>
<!-- Created with Inkscape (http://www.inkscape.org/) -->

<svg
   xmlns:dc="http://purl.org/dc/elements/1.1/"
   xmlns:cc="http://creativecommons.org/ns#"
   xmlns:rdf="http://www.w3.org/1999/02/22-rdf-syntax-ns#"
   xmlns:svg="http://www.w3.org/2000/svg"
   xmlns="http://www.w3.org/2000/svg"
   xmlns:sodipodi="http://sodipodi.sourceforge.net/DTD/sodipodi-0.dtd"
   xmlns:inkscape="http://www.inkscape.org/namespaces/inkscape"
   version="1.1"
   id="svg2"
   xml:space="preserve"
   width="170.1492"
   height="105.82634"
   viewBox="0 0 170.1492 105.82633"
   sodipodi:docname="1b3.svg"
   inkscape:version="0.92.3 (2405546, 2018-03-11)"><metadata
     id="metadata8"><rdf:RDF><cc:Work
         rdf:about=""><dc:format>image/svg+xml</dc:format><dc:type
           rdf:resource="http://purl.org/dc/dcmitype/StillImage" /><dc:title></dc:title></cc:Work></rdf:RDF></metadata><defs
     id="defs6" /><sodipodi:namedview
     pagecolor="#ffffff"
     bordercolor="#666666"
     borderopacity="1"
     objecttolerance="10"
     gridtolerance="10"
     guidetolerance="10"
     inkscape:pageopacity="0"
     inkscape:pageshadow="2"
     inkscape:window-width="1920"
     inkscape:window-height="1017"
     id="namedview4"
     showgrid="false"
     inkscape:zoom="0.82749023"
     inkscape:cx="-367.68227"
     inkscape:cy="71.778091"
     inkscape:window-x="0"
     inkscape:window-y="29"
     inkscape:window-maximized="1"
     inkscape:current-layer="g10"
     fit-margin-top="0"
     fit-margin-left="0"
     fit-margin-right="0"
     fit-margin-bottom="0" /><g
     id="g10"
     inkscape:groupmode="layer"
     inkscape:label="ink_ext_XXXXXX"
     transform="matrix(1.3333333,0,0,-1.3333333,-353.01188,334.14779)"><path
       inkscape:connector-curvature="0"
       id="path23496"
       style="fill:#000000;fill-opacity:1;fill-rule:nonzero;stroke:none;stroke-width:0.09999999"
       d="m 292.02785,176.6286 c 0,0 33.64647,-6.67194 58.401,27.29211 0,0 -8.38325,-20.80557 -34.70603,-27.27223 0,0 39.00155,4.14648 42.52264,27.44301 0,0 1.15648,5.72939 -3.16853,13.34214 -4.32623,7.6153 -2.31607,13.45925 -2.31607,13.45925 0,0 -3.32037,-2.53273 -3.04958,-12.42894 0.27269,-9.89688 -17.97419,-40.38143 -57.68343,-41.83534" /><path
       inkscape:connector-curvature="0"
       id="path23510"
       style="fill:#000000;fill-opacity:1;fill-rule:nonzero;stroke:none;stroke-width:0.09999999"
       d="m 363.78183,227.30711 c 11.36213,-9.8525 21.09469,1.92949 12.90469,8.42675 -5.45499,4.32766 -6.92993,-2.92709 -12.52117,-0.18535 -0.9377,0.45897 -1.41042,1.16301 -1.56492,2.00507 0.14848,1.20946 0.59171,2.51953 1.52098,3.92679 0.3509,0.71579 2.33683,4.08822 7.46248,5.84345 5.21537,2.17593 12.80882,-2.17878 16.57545,-10.44336 4.14238,-8.25741 1.11234,-19.23688 -5.36006,-28.46756 -6.03767,-9.43944 -15.13332,-17.64511 -25.69744,-23.08263 -21.18351,-11.2018 -45.52743,-13.31436 -63.02156,-13.63662 -17.69814,-0.19599 -29.33627,1.68163 -29.32135,1.65429 -0.0137,0.028 11.58892,-2.02992 29.3243,-2.10685 17.53944,0.0666 41.97677,1.75895 63.68883,12.80644 10.8211,5.36074 20.30982,13.63002 26.69084,23.29294 6.63016,9.05902 10.47988,21.26243 5.92757,30.53857 -3.71803,8.98072 -12.83019,14.68479 -19.56541,12.11162 -6.30899,-2.05038 -8.69102,-6.10084 -9.18581,-7.0167 -0.94135,-1.3809 -1.46082,-2.92489 -1.64923,-4.44106 -0.88141,-3.61699 -0.26614,-7.7065 3.79181,-11.22579" /></g></svg>