<?xml version="1.0" encoding="UTF-8" standalone="no"?>
<!-- Created with Inkscape (http://www.inkscape.org/) -->

<svg
   xmlns:dc="http://purl.org/dc/elements/1.1/"
   xmlns:cc="http://creativecommons.org/ns#"
   xmlns:rdf="http://www.w3.org/1999/02/22-rdf-syntax-ns#"
   xmlns:svg="http://www.w3.org/2000/svg"
   xmlns="http://www.w3.org/2000/svg"
   xmlns:sodipodi="http://sodipodi.sourceforge.net/DTD/sodipodi-0.dtd"
   xmlns:inkscape="http://www.inkscape.org/namespaces/inkscape"
   version="1.1"
   id="svg2"
   xml:space="preserve"
   width="142.48083"
   height="148.4313"
   viewBox="0 0 142.48083 148.43129"
   sodipodi:docname="1b4.svg"
   inkscape:version="0.92.3 (2405546, 2018-03-11)"><metadata
     id="metadata8"><rdf:RDF><cc:Work
         rdf:about=""><dc:format>image/svg+xml</dc:format><dc:type
           rdf:resource="http://purl.org/dc/dcmitype/StillImage" /><dc:title></dc:title></cc:Work></rdf:RDF></metadata><defs
     id="defs6" /><sodipodi:namedview
     pagecolor="#ffffff"
     bordercolor="#666666"
     borderopacity="1"
     objecttolerance="10"
     gridtolerance="10"
     guidetolerance="10"
     inkscape:pageopacity="0"
     inkscape:pageshadow="2"
     inkscape:window-width="1920"
     inkscape:window-height="1017"
     id="namedview4"
     showgrid="false"
     inkscape:zoom="0.82749023"
     inkscape:cx="-254.09468"
     inkscape:cy="80.747316"
     inkscape:window-x="0"
     inkscape:window-y="29"
     inkscape:window-maximized="1"
     inkscape:current-layer="g10"
     fit-margin-top="0"
     fit-margin-left="0"
     fit-margin-right="0"
     fit-margin-bottom="0" /><g
     id="g10"
     inkscape:groupmode="layer"
     inkscape:label="ink_ext_XXXXXX"
     transform="matrix(1.3333333,0,0,-1.3333333,-239.42429,367.78354)"><path
       inkscape:connector-curvature="0"
       id="path6772"
       style="fill:#e2e0b7;fill-opacity:1;fill-rule:nonzero;stroke:none;stroke-width:0.09999999"
       d="m 278.75155,177.17092 c -0.60629,-1.6672 -0.49063,-3.23938 0.25556,-3.51074 0.74619,-0.27136 1.84286,0.85996 2.44915,2.52716 0.60627,1.66717 0.49285,3.23963 -0.25335,3.51099 -0.74619,0.27135 -1.84508,-0.86023 -2.45136,-2.52741" /><path
       inkscape:connector-curvature="0"
       id="path6774"
       style="fill:#e2e0b7;fill-opacity:1;fill-rule:nonzero;stroke:none;stroke-width:0.09999999"
       d="m 268.74563,180.80963 c -0.60629,-1.66721 -1.7039,-2.79818 -2.45103,-2.52648 -0.74807,0.27204 -0.85997,1.84285 -0.25368,3.51006 0.60628,1.66717 1.70141,2.80013 2.44948,2.52809 0.74714,-0.2717 0.8615,-1.8445 0.25523,-3.51167" /><path
       inkscape:connector-curvature="0"
       id="path23882"
       style="fill:#000000;fill-opacity:1;fill-rule:nonzero;stroke:none;stroke-width:0.09999999"
       d="m 246.29076,250.52019 c 0,0 -8.26475,-12.44477 -0.57332,-22.63816 7.69111,-10.19432 1.20584,-21.37408 1.20584,-21.37408 0,0 9.53005,12.16128 0.0343,29.90491 0,0 7.44909,-8.31123 4.39147,-21.25462 0,0 5.25148,10.12491 -1.71597,21.32019 0,0 5.7987,-5.28285 4.7292,-16.14753 -0.0191,-0.20479 0.17259,0.38096 0.26265,0.57593 2.30505,5.20034 4.84546,13.8159 -0.0967,19.63108 -7.50145,8.81974 -7.90686,7.74881 -8.23746,9.98228" /><path
       inkscape:connector-curvature="0"
       id="path23884"
       style="fill:#000000;fill-opacity:1;fill-rule:nonzero;stroke:none;stroke-width:0.09999999"
       d="m 246.54043,195.6266 c -4.43905,-3.99337 -8.66357,-7.03687 -8.66357,-7.03687 0,0 4.30661,2.41776 16.30521,2.55861 19.1143,0.22935 21.9655,7.83274 22.55349,14.18104 0.58893,6.34795 5.81273,6.67645 5.81273,6.67645 -8.00145,2.12237 -16.62216,-2.26565 -17.75442,-5.83565 -1.12935,-3.56787 -3.45485,-5.04399 -4.32985,-3.02008 -0.8791,2.02433 0.16215,4.45162 7.99615,7.51898 7.82861,3.06718 6.2695,8.73425 3.46459,15.51089 -2.80432,6.77536 2.16156,12.64463 2.16156,12.64463 0,0 -8.2519,-0.48291 -10.11594,-15.51924 -1.86471,-15.03819 -17.42995,-27.67876 -17.42995,-27.67876" /><path
       inkscape:connector-curvature="0"
       id="path23886"
       style="fill:#000000;fill-opacity:1;fill-rule:nonzero;stroke:none;stroke-width:0.09999999"
       d="m 236.37283,223.49019 c 2.54864,-5.44487 13.21177,-12.2594 -2.19481,-29.64276 0,0 12.83994,8.87417 11.16812,23.20545 -1.67277,14.33162 -11.52449,11.88098 -8.97331,6.43731" /><path
       inkscape:connector-curvature="0"
       id="path23888"
       style="fill:#000000;fill-opacity:1;fill-rule:nonzero;stroke:none;stroke-width:0.09999999"
       d="m 273.96829,184.51162 c -23.26459,10.17452 -44.0947,-1.00261 -44.0947,-1.00261 15.34236,3.21735 26.56974,-1.06241 26.56974,-1.06241 -19.97713,3.80018 -31.89696,-1.95569 -31.89696,-1.95569 22.91924,4.40433 38.08381,-2.08716 38.08381,-2.08716 -31.95739,6.70017 -49.95932,-3.45607 -49.95932,-3.45607 0,0 8.19141,3.93018 34.49653,-3.27891 23.19323,-6.3562 23.38475,2.52724 30.02104,1.48763 6.63783,-1.04123 8.92696,-8.64223 8.92696,-8.64223 0,0 3.39296,13.20131 -12.1471,19.99745" /><path
       inkscape:connector-curvature="0"
       id="path23890"
       style="fill:#000000;fill-opacity:1;fill-rule:nonzero;stroke:none;stroke-width:0.09999999"
       d="m 222.92656,219.84828 c -11.76175,6.83951 -19.79652,-1.3358 -19.79652,-1.3358 0,0 4.81463,4.0547 8.27534,-3.62227 4.89007,-10.84206 5.71745,-4.15731 8.42903,-13.84748 2.70713,-9.69068 -5.84104,-18.19216 -5.84104,-18.19216 19.07189,3.04751 19.83502,14.39816 18.29277,17.4021 -1.54633,3.00437 2.77426,4.47747 2.77426,4.47747 -6.07351,1.57767 -8.19139,-3.93018 -8.03182,-6.18336 0.16279,-2.25014 -1.27174,-5.69744 -2.86568,-4.89858 -2.9254,1.46816 0.004,3.98769 3.53141,11.84108 3.52761,7.85114 -4.76775,14.359 -4.76775,14.359" /><path
       inkscape:connector-curvature="0"
       id="path23892"
       style="fill:#000000;fill-opacity:1;fill-rule:nonzero;stroke:none;stroke-width:0.09999999"
       d="m 201.72388,199.32791 c 6.25673,-4.72266 11.55898,-2.80318 11.66624,-11.24833 0,0 9.12634,10.31084 0.96161,18.17575 -4.1949,4.03991 -11.02325,0.24719 -13.31438,5.85592 0,0 -5.56985,-8.05975 0.68653,-12.78334" /><path
       inkscape:connector-curvature="0"
       id="path23894"
       style="fill:#000000;fill-opacity:1;fill-rule:nonzero;stroke:none;stroke-width:0.09999999"
       d="m 198.3748,184.34536 c 0,0 -1.80163,2.84075 1.34088,3.02592 3.14302,0.18074 3.68365,-0.38083 5.0241,2.641 1.34053,3.02499 7.6098,-8.56864 -3.2995,-12.77456 0,0 6.52125,1.42086 8.09953,7.49309 1.52376,5.85797 -1.47009,10.02294 -7.13891,10.67986 -6.90372,0.80166 -10.7524,-8.45326 -4.02609,-11.06531" /><path
       inkscape:connector-curvature="0"
       id="path23510-3"
       style="fill:#000000;fill-opacity:1;fill-rule:nonzero;stroke:none;stroke-width:0.09999999"
       d="m 236.17319,248.86099 c 14.65614,-3.37159 17.72485,11.59908 7.44408,13.49542 -6.84761,1.2632 -4.74718,-5.83574 -10.97122,-6.03707 -1.04343,-0.0345 -1.79115,0.36548 -2.32259,1.0367 -0.43621,1.13781 -0.65928,2.5027 -0.49871,4.18146 -0.0258,0.79674 0.14611,4.70667 3.84952,8.66115 3.58532,4.36809 12.33423,4.08411 19.53747,-1.44798 7.53173,-5.34949 10.00594,-16.46741 8.6197,-27.65561 -0.9044,-11.16863 -5.0882,-22.68211 -11.8673,-32.43968 -13.45387,-19.82964 -21.94044,-21.93504 -37.76203,-31.20009 -15.53832,-8.47488 -32.65988,-11.43364 -32.63386,-11.45076 -0.025,0.0187 17.14951,2.80115 32.84875,11.05247 15.79762,8.88629 24.7477,10.83858 38.74076,30.77987 7.04213,9.81032 11.54325,21.56434 12.64604,33.09141 0.45611,3.15525 0.59521,6.42929 0.36887,9.63889 -0.5707,8.09236 -3.46464,15.77514 -9.45884,20.11197 -7.49624,6.18734 -18.21938,6.95063 -22.96062,1.51879 -4.61007,-4.77021 -4.81375,-9.46475 -4.82115,-10.50572 -0.18362,-1.66111 0.0819,-3.26836 0.6267,-4.69577 0.9182,-3.60782 3.37987,-6.93088 8.6145,-8.13547"
       sodipodi:nodetypes="ccccccccccccccsccccc" /></g></svg>