<?xml version="1.0" encoding="UTF-8" standalone="no"?>
<!-- Created with Inkscape (http://www.inkscape.org/) -->

<svg
   xmlns:dc="http://purl.org/dc/elements/1.1/"
   xmlns:cc="http://creativecommons.org/ns#"
   xmlns:rdf="http://www.w3.org/1999/02/22-rdf-syntax-ns#"
   xmlns:svg="http://www.w3.org/2000/svg"
   xmlns="http://www.w3.org/2000/svg"
   xmlns:sodipodi="http://sodipodi.sourceforge.net/DTD/sodipodi-0.dtd"
   xmlns:inkscape="http://www.inkscape.org/namespaces/inkscape"
   version="1.1"
   id="svg2"
   xml:space="preserve"
   width="75.325531"
   height="65.649544"
   viewBox="0 0 75.32553 65.64954"
   sodipodi:docname="1t3.svg"
   inkscape:version="0.92.3 (2405546, 2018-03-11)"><metadata
     id="metadata8"><rdf:RDF><cc:Work
         rdf:about=""><dc:format>image/svg+xml</dc:format><dc:type
           rdf:resource="http://purl.org/dc/dcmitype/StillImage" /><dc:title></dc:title></cc:Work></rdf:RDF></metadata><defs
     id="defs6" /><sodipodi:namedview
     pagecolor="#ffffff"
     bordercolor="#666666"
     borderopacity="1"
     objecttolerance="10"
     gridtolerance="10"
     guidetolerance="10"
     inkscape:pageopacity="0"
     inkscape:pageshadow="2"
     inkscape:window-width="1920"
     inkscape:window-height="1017"
     id="namedview4"
     showgrid="false"
     inkscape:zoom="0.82749023"
     inkscape:cx="87.341195"
     inkscape:cy="-17.502167"
     inkscape:window-x="0"
     inkscape:window-y="29"
     inkscape:window-maximized="1"
     inkscape:current-layer="g10"
     fit-margin-top="0"
     fit-margin-left="0"
     fit-margin-right="0"
     fit-margin-bottom="0" /><g
     id="g10"
     inkscape:groupmode="layer"
     inkscape:label="ink_ext_XXXXXX"
     transform="matrix(1.3333333,0,0,-1.3333333,-303.43127,383.25125)"><path
       inkscape:connector-curvature="0"
       id="path23502"
       style="fill:#000000;fill-opacity:1;fill-rule:nonzero;stroke:none;stroke-width:0.09999999"
       d="m 277.98574,251.88909 c -3.69148,-5.49611 -11.21483,-9.9919 -19.04559,-11.76377 -15.79451,-3.81615 -31.45788,-0.76111 -31.36599,-0.85468 -0.12254,0.0739 15.76785,-2.1936 30.98238,2.25241 7.56056,2.08325 14.33735,6.6774 17.40976,11.74215 1.57474,2.44908 2.42687,4.75487 2.90668,6.54051 1.77979,11.64167 -4.15844,14.56574 -8.48354,13.64911 -5.3209,-1.12749 -2.49034,-6.96979 -2.49034,-6.96979 -2.80258,-1.13479 -12.60908,4.68145 -9.34095,14.1074 3.26622,9.42711 22.31614,10.23822 25.00279,-4.69623 1.60113,-8.88256 -0.88613,-15.85157 -3.37152,-20.25672 -0.57076,-1.18756 -1.28812,-2.45276 -2.20368,-3.75039" /></g></svg>