<?xml version="1.0" encoding="UTF-8" standalone="no"?>
<!-- Created with Inkscape (http://www.inkscape.org/) -->

<svg
   xmlns:dc="http://purl.org/dc/elements/1.1/"
   xmlns:cc="http://creativecommons.org/ns#"
   xmlns:rdf="http://www.w3.org/1999/02/22-rdf-syntax-ns#"
   xmlns:svg="http://www.w3.org/2000/svg"
   xmlns="http://www.w3.org/2000/svg"
   xmlns:sodipodi="http://sodipodi.sourceforge.net/DTD/sodipodi-0.dtd"
   xmlns:inkscape="http://www.inkscape.org/namespaces/inkscape"
   version="1.1"
   id="svg2"
   xml:space="preserve"
   width="430.59177"
   height="126.2815"
   viewBox="0 0 430.59171 126.28149"
   sodipodi:docname="1t5.svg"
   inkscape:version="0.92.3 (2405546, 2018-03-11)"><metadata
     id="metadata8"><rdf:RDF><cc:Work
         rdf:about=""><dc:format>image/svg+xml</dc:format><dc:type
           rdf:resource="http://purl.org/dc/dcmitype/StillImage" /><dc:title></dc:title></cc:Work></rdf:RDF></metadata><defs
     id="defs6" /><sodipodi:namedview
     pagecolor="#ffffff"
     bordercolor="#666666"
     borderopacity="1"
     objecttolerance="10"
     gridtolerance="10"
     guidetolerance="10"
     inkscape:pageopacity="0"
     inkscape:pageshadow="2"
     inkscape:window-width="1920"
     inkscape:window-height="1017"
     id="namedview4"
     showgrid="false"
     inkscape:zoom="0.82749023"
     inkscape:cx="53.874406"
     inkscape:cy="-97.616671"
     inkscape:window-x="0"
     inkscape:window-y="29"
     inkscape:window-maximized="1"
     inkscape:current-layer="g10"
     fit-margin-top="0"
     fit-margin-left="0"
     fit-margin-right="0"
     fit-margin-bottom="0" /><g
     id="g10"
     inkscape:groupmode="layer"
     inkscape:label="ink_ext_XXXXXX"
     transform="matrix(1.3333333,0,0,-1.3333333,-336.89805,523.99772)"><path
       inkscape:connector-curvature="0"
       id="path23488"
       style="fill:#000000;fill-opacity:1;fill-rule:nonzero;stroke:none;stroke-width:0.09999999"
       d="m 301.83635,354.51021 c -2.69105,-2.96764 -6.66359,-3.45331 -9.65338,-2.95714 -1.19275,0.0913 -2.30404,0.33257 -3.31766,0.68834 -3.40744,0.79714 -8.02463,3.1251 -8.67022,9.87545 -1.04417,10.87502 11.54948,12.69932 12.83491,6.2317 1.2833,-6.47053 -2.194,-6.66242 -4.55068,-10.76098 -1.60942,-2.80138 0.89555,-4.45627 2.64575,-5.22539 0.37634,-0.051 0.7624,-0.0877 1.15937,-0.10771 6.26475,-1.66217 13.0456,5.20038 11.5698,13.79481 -0.82631,8.02897 -8.56871,17.34056 -19.08228,16.94479 -10.35667,-0.49601 -20.80537,-8.53248 -25.75072,-19.66442 -5.26125,-11.26967 -3.20457,-25.5777 4.00972,-37.32543 7.1854,-11.84346 20.38458,-20.41032 35.33447,-22.56721 14.94342,-2.34026 31.07935,1.02515 45.39636,8.47757 14.80352,7.09996 25.58404,18.87633 37.46493,29.40666 11.93795,10.27226 24.34173,19.19649 37.01608,26.25534 25.14868,14.34159 51.97166,20.69362 73.87505,17.4839 15.02532,-1.86212 26.91521,-7.36096 35.92338,-13.04707 27.77214,-14.95503 33.87715,-34.23901 33.87715,-34.23901 -8.16052,29.09219 -41.50613,41.58196 -41.50613,41.58196 69.77707,-13.16104 53.57594,-79.11626 53.57594,-79.11626 0,0 -2.98734,10.42383 -19.57043,22.04602 -16.58061,11.62417 -7.32838,12.74193 -17.81884,33.58256 -6.11259,12.14171 -19.43269,19.75732 -29.49092,24.00472 -4.69256,1.36566 -9.77276,2.40234 -15.25101,2.9316 -21.40083,2.55973 -47.26974,-4.14535 -71.71766,-18.55461 -12.31606,-7.09824 -24.39913,-16.00861 -36.05737,-26.20424 -11.32578,-10.17313 -22.81885,-22.78796 -38.24675,-30.16924 -15.0051,-7.80706 -32.13076,-11.36585 -48.15829,-8.72751 -16.02473,2.41791 -30.35367,11.92946 -37.91191,24.85467 -7.59306,12.68249 -9.56777,28.44178 -3.57122,40.60717 5.67583,11.97371 16.97132,20.3472 28.53589,20.65211 12.05841,0.005 19.84889,-10.38225 20.5518,-19.06421 0.36309,-4.44426 -0.81787,-8.79148 -3.44513,-11.68894" /><path
       inkscape:connector-curvature="0"
       id="path23490"
       style="fill:#000000;fill-opacity:1;fill-rule:nonzero;stroke:none;stroke-width:0.09999999"
       d="m 495.9996,331.37262 c 0,0 -5.2696,-8.09374 1.17008,-11.08561 6.44095,-2.99246 24.99854,10.36673 17.6807,27.01978 -8.00109,18.20269 -26.58658,36.75132 -71.77894,26.51177 0,0 40.16897,14.9849 64.92037,-8.86902 25.74551,-24.81201 20.48511,-50.68403 2.42546,-55.03756 -6.1174,-1.47473 -24.31948,0.1626 -19.98674,15.31439 0,0 -0.40364,5.61014 5.56907,6.14625" /><path
       inkscape:connector-curvature="0"
       id="path23492"
       style="fill:#000000;fill-opacity:1;fill-rule:nonzero;stroke:none;stroke-width:0.09999999"
       d="m 434.57078,343.06099 c -9.38219,7.67444 -18.9811,5.81252 -18.9811,5.81252 0,0 21.00626,8.90929 35.18079,-4.00592 0,0 -1.736,13.7566 -37.99274,8.32526 0,0 29.53157,22.71184 48.99621,4.33003 16.95156,-16.01125 16.23922,-25.31886 16.23922,-25.31886 0,0 -7.00998,10.18602 -18.65558,7.16543 -11.64278,-3.01959 -15.40367,-3.98262 -24.7868,3.69154" /><path
       inkscape:connector-curvature="0"
       id="path23494"
       style="fill:#000000;fill-opacity:1;fill-rule:nonzero;stroke:none;stroke-width:0.09999999"
       d="m 366.11063,314.3484 c 0,0 11.46182,-7.73666 36.97528,10.21962 25.51284,17.95497 42.57921,15.14256 66.67322,-11.41728 0,0 -18.0409,15.61543 -49.04471,5.93247 -31.00419,-9.682 -45.25673,-11.18821 -54.60379,-4.73481" /><path
       inkscape:connector-curvature="0"
       id="path23514"
       style="fill:#000000;fill-opacity:1;fill-rule:nonzero;stroke:none;stroke-width:0.09999999"
       d="m 464.8066,370.0406 c 0.60365,-1.65217 -0.24578,-3.4828 -1.89894,-4.08675 -1.65311,-0.60396 -3.48161,0.24836 -4.08521,1.90055 -0.60356,1.65219 0.2452,3.48153 1.89833,4.08547 1.65313,0.60397 3.48221,-0.24708 4.08582,-1.89927" /><path
       inkscape:connector-curvature="0"
       id="path23516"
       style="fill:#000000;fill-opacity:1;fill-rule:nonzero;stroke:none;stroke-width:0.09999999"
       d="m 471.86605,366.75984 c 1.3507,0.49341 2.84856,-0.20282 3.3427,-1.55538 0.4935,-1.35065 -0.20283,-2.84854 -1.55353,-3.342 -1.35257,-0.49412 -2.85043,0.20214 -3.34387,1.55281 -0.49413,1.35258 0.20213,2.85043 1.5547,3.34457" /><path
       inkscape:connector-curvature="0"
       id="path23518"
       style="fill:#000000;fill-opacity:1;fill-rule:nonzero;stroke:none;stroke-width:0.09999999"
       d="m 483.23706,358.42367 c 0.41148,-1.1262 -0.16766,-2.37367 -1.29573,-2.78579 -1.12618,-0.41147 -2.374,0.16859 -2.78544,1.2948 -0.41147,1.12619 0.16859,2.374 1.2948,2.78544 1.12808,0.41209 2.37494,-0.16825 2.78637,-1.29445" /><path
       inkscape:connector-curvature="0"
       id="path23520"
       style="fill:#000000;fill-opacity:1;fill-rule:nonzero;stroke:none;stroke-width:0.09999999"
       d="m 512.00022,387.7441 c -0.74154,2.02978 0.30357,4.27471 2.3324,5.01591 2.02697,0.74052 4.27217,-0.30235 5.01371,-2.33213 0.74123,-2.02884 -0.30295,-4.27346 -2.32992,-5.01399 -2.02883,-0.74122 -4.27498,0.30136 -5.01619,2.33021" /><path
       inkscape:connector-curvature="0"
       id="path23522"
       style="fill:#000000;fill-opacity:1;fill-rule:nonzero;stroke:none;stroke-width:0.09999999"
       d="m 532.88061,385.04109 c -1.57705,-0.57615 -3.32372,0.23578 -3.89988,1.81283 -0.57686,1.57891 0.23544,3.32467 1.81249,3.90081 1.578,0.57646 3.32339,-0.23484 3.90022,-1.81376 0.57615,-1.57706 -0.23483,-3.32339 -1.81283,-3.89988" /><path
       inkscape:connector-curvature="0"
       id="path23524"
       style="fill:#000000;fill-opacity:1;fill-rule:nonzero;stroke:none;stroke-width:0.09999999"
       d="m 547.09213,381.59772 c -1.12809,-0.41209 -2.37622,0.16883 -2.78766,1.29504 -0.41148,1.1262 0.16859,2.374 1.29667,2.78612 1.12619,0.41147 2.37307,-0.16893 2.7845,-1.29513 0.41148,-1.1262 -0.16731,-2.37459 -1.29351,-2.78603" /><path
       inkscape:connector-curvature="0"
       id="path23536"
       style="fill:#000000;fill-opacity:1;fill-rule:nonzero;stroke:none;stroke-width:0.09999999"
       d="m 284.95508,339.80021 c -2.88465,-8.14654 1.32836,-11.23326 1.32836,-11.23326 0,0 -32.34154,-3.48887 -26.40657,32.60427 0,0 0.66358,-13.63628 9.83623,-23.54641 0,0 -12.69847,17.8738 -2.32654,33.38261 0,0 -4.21861,-9.56009 5.26839,-14.42075 9.4851,-4.86136 15.18353,-8.63935 12.30013,-16.78646" /></g></svg>